<svg width="34" height="36" viewBox="0 0 34 36" fill="none" xmlns="http://www.w3.org/2000/svg">
<mask id="mask0_0_171" style="mask-type:luminance" maskUnits="userSpaceOnUse" x="-1" y="-2" width="36" height="40">
<path d="M34.9269 -1.08693H-0.992854V37.0869H34.9269V-1.08693Z" fill="white"/>
</mask>
<g mask="url(#mask0_0_171)">
<path d="M31.1359 8.86096C29.0775 11.0484 26.1567 11.7883 23.5082 11.0484C22.8119 8.23369 23.5082 5.12943 25.5664 2.94199C27.6247 0.754531 30.5154 0.0468285 33.1639 0.786708C33.8601 3.60144 33.1942 6.67351 31.1359 8.86096Z" fill="#EF4637" stroke="black" stroke-linecap="round" stroke-linejoin="round"/>
<path d="M21.995 24.4949C19.8762 24.511 17.9691 23.6423 16.5315 22.211L14.7757 20.3451L13.0051 18.4633C11.6732 16.9514 10.856 14.8765 10.856 12.6569C10.856 9.55265 12.43 6.86659 14.791 5.41901C17.1671 6.88267 18.7259 9.56874 18.7259 12.6569C18.7259 14.9731 17.833 17.0318 16.4255 18.5759C17.8481 17.064 19.8458 16.1472 22.0252 16.1472C24.9159 16.131 27.4433 17.7878 28.8206 20.313C27.4433 22.8382 24.9159 24.4949 22.0101 24.4949H21.995Z" fill="#EF4637" stroke="black" stroke-linecap="round" stroke-linejoin="round"/>
<path d="M11.8999 35.2229C9.78107 35.2389 7.87412 34.3705 6.43634 32.939L4.68075 31.0732L2.91003 29.1914C1.57818 27.6794 0.760934 25.6045 0.760934 23.385C0.760934 20.2807 2.33491 17.5947 4.69588 16.1471C7.072 17.6107 8.63084 20.2968 8.63084 23.385C8.63084 25.7011 7.73791 27.7599 6.33041 29.304C7.75304 27.792 9.75079 26.8752 11.9302 26.8752C14.8208 26.8591 17.3483 28.5159 18.7255 31.0411C17.3483 33.5663 14.8208 35.2229 11.915 35.2229H11.8999Z" fill="#EF4637" stroke="black" stroke-linecap="round" stroke-linejoin="round"/>
<path d="M0.503682 35.4963L6.25478 29.3842L0.503682 35.4963Z" fill="#EF4637"/>
<path d="M0.503682 35.4963L6.25478 29.3842" stroke="black" stroke-linecap="round" stroke-linejoin="round"/>
<path d="M16.4096 18.5757L14.76 20.3449L16.4096 18.5757Z" fill="#EF4637"/>
<path d="M16.4096 18.5757L14.76 20.3449" stroke="black" stroke-linecap="round" stroke-linejoin="round"/>
</g>
</svg>
