<svg width="16" height="16" viewBox="0 0 16 16" fill="none" xmlns="http://www.w3.org/2000/svg">
<path fill-rule="evenodd" clip-rule="evenodd" d="M7.98025 1.16666C6.91267 1.16666 6.02557 1.20471 5.30595 1.35199C4.57727 1.50111 3.97673 1.77071 3.52555 2.26498C3.07968 2.75342 2.8316 3.40494 2.68941 4.21276C2.54747 5.01914 2.50291 6.03156 2.50291 7.28599C2.50291 7.77012 2.50209 8.22468 2.50132 8.65106C2.49768 10.6675 2.49517 12.0538 2.58609 12.9579C2.64033 13.4974 2.73388 13.9553 2.93956 14.2841C3.05017 14.461 3.19707 14.6075 3.38781 14.7051C3.57514 14.801 3.77293 14.8333 3.96225 14.8333C4.39476 14.8333 4.81415 14.5954 5.15268 14.3602C5.48315 14.1306 5.83102 13.8333 6.15999 13.5521L6.23786 13.4856C6.60113 13.1755 6.94234 12.8893 7.26253 12.679C7.59467 12.461 7.82814 12.3773 7.98025 12.3773C8.13235 12.3773 8.36583 12.461 8.69796 12.679C9.01816 12.8893 9.35936 13.1755 9.72264 13.4856L9.80049 13.5521C10.1295 13.8333 10.4773 14.1306 10.8078 14.3602C11.1463 14.5954 11.5657 14.8333 11.9982 14.8333C12.1876 14.8333 12.3853 14.801 12.5727 14.7051C12.7634 14.6075 12.9103 14.461 13.0209 14.2841C13.2266 13.9553 13.3202 13.4974 13.3744 12.9579C13.4653 12.0538 13.4628 10.6675 13.4592 8.65106C13.4584 8.22468 13.4576 7.77012 13.4576 7.28599C13.4576 6.03156 13.413 5.01914 13.2711 4.21276C13.1289 3.40494 12.8808 2.75342 12.4349 2.26498C11.9838 1.77071 11.3832 1.50111 10.6545 1.35199C9.93492 1.20471 9.04783 1.16666 7.98025 1.16666ZM3.50291 7.28599C3.50291 6.04142 3.54827 5.10193 3.67427 4.38612C3.80001 3.67175 3.99789 3.2308 4.26411 2.93916C4.52501 2.65335 4.90268 2.45524 5.50644 2.33168C6.11925 2.20627 6.91883 2.16666 7.98025 2.16666C9.04167 2.16666 9.84124 2.20627 10.4541 2.33168C11.0578 2.45524 11.4355 2.65335 11.6964 2.93916C11.9626 3.2308 12.1605 3.67175 12.2862 4.38612C12.4122 5.10193 12.4576 6.04142 12.4576 7.28599C12.4576 7.78191 12.4584 8.24382 12.4591 8.67395C12.4625 10.6911 12.4648 12.0093 12.3794 12.8579C12.3268 13.3808 12.247 13.6357 12.1731 13.7539C12.1439 13.8006 12.1244 13.8112 12.1172 13.8149C12.1066 13.8203 12.0749 13.8333 11.9982 13.8333C11.8991 13.8333 11.7027 13.7642 11.3784 13.539C11.091 13.3392 10.7801 13.0737 10.4387 12.7821L10.3719 12.725C10.0158 12.4211 9.628 12.0934 9.24678 11.8431C8.8775 11.6007 8.43714 11.3773 7.98025 11.3773C7.52335 11.3773 7.08299 11.6007 6.71371 11.8431C6.33249 12.0934 5.94469 12.4211 5.58864 12.725L5.52181 12.7821L5.52177 12.7821C5.18041 13.0737 4.86949 13.3393 4.58207 13.539C4.25784 13.7642 4.0614 13.8333 3.96225 13.8333C3.88557 13.8333 3.85387 13.8203 3.84327 13.8149C3.83608 13.8112 3.8166 13.8006 3.7874 13.7539C3.71345 13.6357 3.63366 13.3808 3.58107 12.8579C3.49574 12.0093 3.49798 10.6911 3.5014 8.67396L3.5014 8.6739C3.50213 8.24378 3.50291 7.78189 3.50291 7.28599ZM5.69507 5.64512C5.41893 5.64512 5.19507 5.86898 5.19507 6.14512C5.19507 6.42126 5.41893 6.64512 5.69507 6.64512H10.2651C10.5412 6.64512 10.7651 6.42126 10.7651 6.14512C10.7651 5.86898 10.5412 5.64512 10.2651 5.64512H5.69507Z" fill="#303030"/>
</svg>
