<svg width="22" height="22" viewBox="0 0 22 22" fill="none" xmlns="http://www.w3.org/2000/svg">
<path fill-rule="evenodd" clip-rule="evenodd" d="M10.9728 1.60417C9.50484 1.60417 8.28508 1.6565 7.29559 1.859C6.29367 2.06404 5.46792 2.43474 4.84755 3.11437C4.23448 3.78598 3.89337 4.68181 3.69786 5.79256C3.50269 6.90133 3.44142 8.29342 3.44142 10.0183C3.44142 10.6839 3.44029 11.309 3.43923 11.8952C3.43422 14.6679 3.43078 16.574 3.55579 17.8172C3.63038 18.5589 3.759 19.1885 4.04181 19.6407C4.1939 19.8839 4.39588 20.0854 4.65816 20.2196C4.91574 20.3514 5.18769 20.3958 5.44801 20.3958C6.04272 20.3958 6.61938 20.0687 7.08485 19.7453C7.53925 19.4295 8.01756 19.0208 8.46989 18.6342L8.46991 18.6342L8.57697 18.5428C9.07648 18.1164 9.54563 17.7228 9.9859 17.4337C10.4426 17.1339 10.7636 17.0188 10.9728 17.0188C11.1819 17.0188 11.5029 17.1339 11.9596 17.4337C12.3999 17.7228 12.869 18.1164 13.3685 18.5428L13.4756 18.6342L13.4756 18.6342C13.928 19.0208 14.4063 19.4296 14.8607 19.7453C15.3261 20.0687 15.9028 20.3958 16.4975 20.3958C16.7578 20.3958 17.0298 20.3514 17.2874 20.2196C17.5496 20.0854 17.7516 19.8839 17.9037 19.6407C18.1865 19.1885 18.3151 18.5589 18.3897 17.8172C18.5147 16.574 18.5113 14.6679 18.5063 11.8952V11.8952C18.5052 11.309 18.5041 10.6839 18.5041 10.0183C18.5041 8.29342 18.4428 6.90133 18.2477 5.79256C18.0521 4.68181 17.711 3.78598 17.098 3.11437C16.4776 2.43474 15.6518 2.06404 14.6499 1.859C13.6604 1.6565 12.4407 1.60417 10.9728 1.60417ZM4.81642 10.0183C4.81642 8.30697 4.87879 7.01517 5.05204 6.03093C5.22494 5.04867 5.49702 4.44237 5.86307 4.04137C6.22181 3.64837 6.7411 3.37598 7.57128 3.20608C8.41389 3.03363 9.51331 2.97917 10.9728 2.97917C12.4322 2.97917 13.5316 3.03363 14.3742 3.20608C15.2044 3.37598 15.7237 3.64837 16.0824 4.04137C16.4485 4.44237 16.7206 5.04867 16.8935 6.03093C17.0667 7.01517 17.1291 8.30697 17.1291 10.0183C17.1291 10.6998 17.1302 11.3346 17.1312 11.9258L17.1312 11.9267C17.1359 14.7003 17.139 16.5128 17.0216 17.6796C16.9493 18.3987 16.8396 18.7491 16.7379 18.9116C16.6978 18.9758 16.671 18.9904 16.6611 18.9955C16.6465 19.0029 16.6029 19.0208 16.4975 19.0208C16.3612 19.0208 16.0911 18.9259 15.6453 18.6161C15.25 18.3415 14.8225 17.9763 14.3531 17.5754L14.2612 17.4969C13.7716 17.079 13.2384 16.6284 12.7142 16.2843C12.2065 15.9509 11.601 15.6438 10.9728 15.6438C10.3445 15.6438 9.73903 15.9509 9.23127 16.2843C8.70709 16.6284 8.17387 17.079 7.68429 17.4969L7.5924 17.5754L7.59234 17.5754C7.12298 17.9763 6.69546 18.3415 6.30026 18.6161C5.85445 18.9259 5.58434 19.0208 5.44801 19.0208C5.34257 19.0208 5.29899 19.0029 5.28441 18.9955C5.27453 18.9904 5.24774 18.9758 5.20759 18.9116C5.10591 18.7491 4.9962 18.3987 4.92389 17.6796C4.80656 16.5128 4.80964 14.7003 4.81434 11.9267C4.81535 11.3353 4.81642 10.7001 4.81642 10.0183ZM7.83064 7.76206C7.45094 7.76206 7.14314 8.06986 7.14314 8.44956C7.14314 8.82926 7.45094 9.13706 7.83064 9.13706H14.1144C14.4941 9.13706 14.8019 8.82926 14.8019 8.44956C14.8019 8.06986 14.4941 7.76206 14.1144 7.76206H7.83064Z" fill="#303030"/>
</svg>
