<svg width="21" height="26" viewBox="0 0 21 26" fill="none" xmlns="http://www.w3.org/2000/svg">
<g filter="url(#filter0_d_123_578)">
<path d="M15.2305 19.0846C14.2865 20.1338 13.256 19.9682 12.2639 19.4712C11.214 18.9631 10.2509 18.9411 9.14322 19.4712C7.75626 20.1559 7.02425 19.9571 6.19592 19.0846C1.49565 13.5293 2.18913 5.06935 7.5251 4.76011C8.82537 4.83742 9.73075 5.57739 10.4917 5.64366C11.6282 5.3786 12.7166 4.61654 13.9302 4.71594C15.3846 4.84847 16.4826 5.51113 17.205 6.70392C14.1999 8.76921 14.9126 13.3084 17.6673 14.5785C17.1183 16.2352 16.4055 17.8808 15.2208 19.0957L15.2305 19.0846ZM10.3953 4.69385C10.2509 2.23096 11.9942 0.198798 13.9976 0C14.2769 2.84944 11.7438 4.96996 10.3953 4.69385Z" fill="white"/>
</g>
<defs>
<filter id="filter0_d_123_578" x="-1.9069e-05" y="0" width="20.7261" height="25.9999" filterUnits="userSpaceOnUse" color-interpolation-filters="sRGB">
<feFlood flood-opacity="0" result="BackgroundImageFix"/>
<feColorMatrix in="SourceAlpha" type="matrix" values="0 0 0 0 0 0 0 0 0 0 0 0 0 0 0 0 0 0 127 0" result="hardAlpha"/>
<feOffset dy="2.98305"/>
<feGaussianBlur stdDeviation="1.49153"/>
<feComposite in2="hardAlpha" operator="out"/>
<feColorMatrix type="matrix" values="0 0 0 0 0 0 0 0 0 0 0 0 0 0 0 0 0 0 0.09 0"/>
<feBlend mode="normal" in2="BackgroundImageFix" result="effect1_dropShadow_123_578"/>
<feBlend mode="normal" in="SourceGraphic" in2="effect1_dropShadow_123_578" result="shape"/>
</filter>
</defs>
</svg>
