<svg width="20" height="20" viewBox="0 0 20 20" fill="none" xmlns="http://www.w3.org/2000/svg">
<path fill-rule="evenodd" clip-rule="evenodd" d="M15.7208 4.26988C16.085 4.39738 16.3283 4.74071 16.3283 5.12655V10.7707C16.3283 12.3482 15.755 13.854 14.7425 15.0207C14.2333 15.6082 13.5891 16.0657 12.905 16.4357L9.93996 18.0374L6.96996 16.4349C6.28496 16.0649 5.63996 15.6082 5.12996 15.0199C4.11663 13.8532 3.54163 12.3465 3.54163 10.7674V5.12655C3.54163 4.74071 3.78496 4.39738 4.14913 4.26988L9.63413 2.34238C9.82913 2.27405 10.0416 2.27405 10.2358 2.34238L15.7208 4.26988Z" stroke="#A0C834" stroke-linecap="round" stroke-linejoin="round"/>
<path opacity="0.4" d="M7.76868 9.93152L9.34534 11.509L12.5937 8.26068" stroke="#A0C834" stroke-linecap="round" stroke-linejoin="round"/>
</svg>
