<svg width="25" height="25" viewBox="0 0 25 25" fill="none" xmlns="http://www.w3.org/2000/svg">
<g clip-path="url(#clip0_108_418)">
<path d="M16.7755 4.29688H8.19265V20.7031H16.7755V4.29688Z" fill="#EBF7F7"/>
<path d="M8.19269 4.29688H2.7309C1.44348 4.29688 0.390138 5.23438 0.390138 6.5625V18.4375C0.390138 19.7656 1.44348 20.7031 2.7309 20.7031H8.19269V4.29688Z" fill="#589F58"/>
<path d="M22.2372 4.29688H16.7754V20.7031H22.2372C23.5247 20.7031 24.578 19.7656 24.578 18.4375V6.5625C24.578 5.23438 23.5247 4.29688 22.2372 4.29688Z" fill="#589F58"/>
<path d="M22.2372 4.29688H16.7754V16.0547L22.1592 20.7031C23.4466 20.7031 24.578 19.7656 24.578 18.4375V6.5625C24.578 5.23438 23.5247 4.29688 22.2372 4.29688Z" fill="#479347"/>
<path d="M16.7755 16.0547V4.29688H8.19265V8.94531L16.7755 16.0547Z" fill="#E2F2F1"/>
<path d="M8.19275 4.29688H2.73097L8.19275 8.94531V4.29688Z" fill="#479347"/>
<path d="M16.7754 20.7031H22.2372C23.5247 20.7031 24.578 19.9219 24.578 18.3594H16.7754V20.7031Z" fill="#398439"/>
<path d="M16.7755 18.3594H8.19265V20.7031H16.7755V18.3594Z" fill="#D6EAE8"/>
<path d="M0.390138 18.3594C0.390138 19.9219 1.44348 20.7031 2.7309 20.7031H8.19269V18.3594H0.390138Z" fill="#398439"/>
<path d="M22.2372 4.29688H16.7754V8.4375L24.578 10.8594V6.5625C24.578 5.23438 23.5247 4.29688 22.2372 4.29688Z" fill="#398439"/>
<path d="M16.7755 8.4375V4.29688H8.19265V5.89844L16.7755 8.4375Z" fill="#D6EAE8"/>
<path d="M8.19275 4.29688H2.73097L8.19275 5.89844V4.29688Z" fill="#398439"/>
</g>
<defs>
<clipPath id="clip0_108_418">
<rect width="24.1399" height="24.1707" fill="white" transform="scale(1.03431)"/>
</clipPath>
</defs>
</svg>
