<svg width="34" height="36" viewBox="0 0 34 36" fill="none" xmlns="http://www.w3.org/2000/svg">
<mask id="mask0_0_125" style="mask-type:luminance" maskUnits="userSpaceOnUse" x="-2" y="-2" width="37" height="40">
<path d="M34.7243 -1.08686H-1.19538V37.0869H34.7243V-1.08686Z" fill="white"/>
</mask>
<g mask="url(#mask0_0_125)">
<path d="M26.8584 0.503681H26.0484C22.642 0.503681 19.8805 3.43842 19.8805 7.05861V7.91935C19.8805 11.5395 22.642 14.4743 26.0484 14.4743H26.8584C30.2648 14.4743 33.0262 11.5395 33.0262 7.91935V7.05861C33.0262 3.43842 30.2648 0.503681 26.8584 0.503681Z" fill="#EF4637" stroke="black" stroke-linecap="round" stroke-linejoin="round"/>
<path d="M27.7306 21.5257H25.1763C22.2515 21.5257 19.8805 24.0455 19.8805 27.1536V29.8684C19.8805 32.9765 22.2515 35.4963 25.1763 35.4963H27.7306C30.6552 35.4963 33.0262 32.9765 33.0262 29.8684V27.1536C33.0262 24.0455 30.6552 21.5257 27.7306 21.5257Z" fill="#EF4637" stroke="black" stroke-linecap="round" stroke-linejoin="round"/>
<path d="M8.3537 0.503681H5.79933C2.87463 0.503681 0.503681 3.0234 0.503681 6.13164V8.84631C0.503681 11.9545 2.87463 14.4743 5.79933 14.4743H8.3537C11.2784 14.4743 13.6493 11.9545 13.6493 8.84631V6.13164C13.6493 3.0234 11.2784 0.503681 8.3537 0.503681Z" fill="#EF4637" stroke="black" stroke-linecap="round" stroke-linejoin="round"/>
<path d="M8.3537 21.5257H5.79933C2.87463 21.5257 0.503681 24.0455 0.503681 27.1536V29.8684C0.503681 32.9765 2.87463 35.4963 5.79933 35.4963H8.3537C11.2784 35.4963 13.6493 32.9765 13.6493 29.8684V27.1536C13.6493 24.0455 11.2784 21.5257 8.3537 21.5257Z" fill="#EF4637" stroke="black" stroke-linecap="round" stroke-linejoin="round"/>
</g>
</svg>
