<svg width="16" height="17" viewBox="0 0 16 17" fill="none" xmlns="http://www.w3.org/2000/svg">
<path d="M15.3299 15.9656C14.2022 13.7299 12.4642 12.1268 10.4359 11.3668C11.4392 10.682 12.2187 9.63843 12.6547 8.39645C13.0906 7.15447 13.159 5.78272 12.8493 4.49186C12.5396 3.20101 11.8689 2.06242 10.9402 1.25095C10.0115 0.43948 8.87625 0 7.70867 0C6.5411 0 5.4058 0.43948 4.47713 1.25095C3.54846 2.06242 2.87777 3.20101 2.56805 4.49186C2.25833 5.78272 2.32671 7.15447 2.76269 8.39645C3.19867 9.63843 3.97814 10.682 4.9814 11.3668C2.95316 12.1259 1.21519 13.729 0.0874064 15.9656C0.0460484 16.0429 0.018616 16.129 0.00672762 16.2187C-0.00516076 16.3083 -0.00126424 16.3998 0.0181873 16.4878C0.0376388 16.5757 0.0722513 16.6583 0.119983 16.7306C0.167714 16.8029 0.227597 16.8636 0.296099 16.9089C0.364601 16.9543 0.440334 16.9835 0.51883 16.9948C0.597326 17.006 0.676994 16.9992 0.753135 16.9745C0.829276 16.9499 0.900347 16.9081 0.962155 16.8515C1.02396 16.7948 1.07525 16.7246 1.113 16.6449C2.50811 13.8802 4.97399 12.2295 7.70867 12.2295C10.4434 12.2295 12.9092 13.8802 14.3043 16.6449C14.3421 16.7246 14.3934 16.7948 14.4552 16.8515C14.517 16.9081 14.5881 16.9499 14.6642 16.9745C14.7404 16.9992 14.82 17.006 14.8985 16.9948C14.977 16.9835 15.0527 16.9543 15.1212 16.9089C15.1898 16.8636 15.2496 16.8029 15.2974 16.7306C15.3451 16.6583 15.3797 16.5757 15.3992 16.4878C15.4186 16.3998 15.4225 16.3083 15.4106 16.2187C15.3987 16.129 15.3713 16.0429 15.3299 15.9656ZM3.56185 6.11591C3.56185 5.17546 3.80506 4.25612 4.26072 3.47416C4.71638 2.6922 5.36402 2.08274 6.12175 1.72284C6.87949 1.36295 7.71327 1.26878 8.51768 1.45225C9.32208 1.63573 10.061 2.0886 10.6409 2.7536C11.2209 3.4186 11.6158 4.26587 11.7758 5.18825C11.9358 6.11064 11.8537 7.06671 11.5398 7.93558C11.226 8.80445 10.6945 9.54708 10.0125 10.0696C9.33058 10.5921 8.52884 10.8709 7.70867 10.8709C6.60923 10.8696 5.55515 10.3682 4.77773 9.47673C4.0003 8.58528 3.56303 7.37661 3.56185 6.11591Z" fill="#A4A4A4"/>
</svg>
