<svg width="16" height="19" viewBox="0 0 16 19" fill="none" xmlns="http://www.w3.org/2000/svg">
<path d="M15.1971 2.21369L15.7648 1.5718C15.9154 1.39913 16 1.16493 16 0.920738C16 0.676543 15.9154 0.44235 15.7648 0.269678C15.6143 0.097006 15.41 0 15.1971 0C14.9841 0 14.7799 0.097006 14.6293 0.269678L13.5097 1.56263L11.2466 4.1577L6.20046 9.93471C5.37361 9.30917 4.37369 9.05785 3.39446 9.22945C2.41523 9.40104 1.52641 9.98332 0.900219 10.8635C0.274031 11.7436 -0.0449408 12.859 0.00511094 13.9934C0.0551627 15.1279 0.470674 16.2006 1.17113 17.0038C1.87159 17.807 2.80713 18.2834 3.79646 18.3408C4.78579 18.3982 5.75848 18.0325 6.52606 17.3144C7.29363 16.5964 7.80144 15.5772 7.95109 14.4544C8.10073 13.3315 7.88156 12.185 7.33603 11.2368L11.8063 6.10171L13.5017 8.05489C13.5763 8.13978 13.6647 8.20701 13.7619 8.25272C13.8591 8.29844 13.9632 8.32175 14.0683 8.32132C14.1734 8.3209 14.2774 8.29674 14.3743 8.25024C14.4712 8.20374 14.5592 8.1358 14.6333 8.0503C14.7073 7.9648 14.7659 7.86342 14.8058 7.75194C14.8457 7.64046 14.866 7.52107 14.8656 7.40059C14.8653 7.2801 14.8442 7.16087 14.8036 7.04972C14.7631 6.93857 14.7038 6.83766 14.6293 6.75277L12.9339 4.80876L14.0695 3.51581L14.6293 4.1577C14.7033 4.2432 14.7913 4.31114 14.8882 4.35764C14.9852 4.40414 15.0892 4.42829 15.1942 4.42872C15.2993 4.42914 15.4034 4.40583 15.5006 4.36012C15.5979 4.3144 15.6863 4.24718 15.7608 4.16228C15.8354 4.07739 15.8947 3.97648 15.9352 3.86533C15.9758 3.75418 15.9968 3.63495 15.9972 3.51447C15.9976 3.39398 15.9772 3.27459 15.9374 3.16311C15.8975 3.05163 15.8389 2.95025 15.7648 2.86475L15.1971 2.21369ZM4.0013 16.5095C3.5268 16.5095 3.06296 16.3482 2.66843 16.0459C2.2739 15.7436 1.96641 15.314 1.78482 14.8113C1.60324 14.3086 1.55573 13.7555 1.6483 13.2219C1.74087 12.6882 1.96936 12.198 2.30488 11.8133C2.6404 11.4286 3.06788 11.1666 3.53326 11.0604C3.99863 10.9543 4.48101 11.0088 4.91939 11.217C5.35776 11.4252 5.73245 11.7778 5.99607 12.2302C6.25968 12.6826 6.40039 13.2145 6.40039 13.7585C6.40039 14.4881 6.14763 15.1879 5.69771 15.7038C5.24779 16.2197 4.63757 16.5095 4.0013 16.5095Z" fill="#A4A4A4"/>
</svg>
