<svg width="17" height="20" viewBox="0 0 17 20" fill="none" xmlns="http://www.w3.org/2000/svg">
<path d="M16.8347 7.83778H16.15V7.79733H8.5V11.696H13.3038C12.603 13.9655 10.7198 15.5947 8.5 15.5947C5.68353 15.5947 3.4 12.9762 3.4 9.74667C3.4 6.51711 5.68353 3.89867 8.5 3.89867C9.80008 3.89867 10.9829 4.46105 11.8834 5.37967L14.2877 2.62283C12.7696 1.0005 10.7389 0 8.5 0C3.80588 0 0 4.36407 0 9.74667C0 15.1293 3.80588 19.4933 8.5 19.4933C13.1941 19.4933 17 15.1293 17 9.74667C17 9.09315 16.9414 8.45523 16.8347 7.83778Z" fill="#FFC107"/>
</svg>
