<svg width="23" height="22" viewBox="0 0 23 22" fill="none" xmlns="http://www.w3.org/2000/svg">
<path d="M9.77904 1.46307L10.9186 0.352637C11.4012 -0.117546 12.1815 -0.117546 12.6589 0.352637L22.6381 10.0714C23.1206 10.5416 23.1206 11.3019 22.6381 11.7671L12.6589 21.4908C12.1763 21.961 11.396 21.961 10.9186 21.4908L9.77904 20.3804C9.29137 19.9052 9.30164 19.1299 9.79958 18.6647L15.9853 12.9225H1.23201C0.549269 12.9225 0 12.3873 0 11.7221V10.1214C0 9.45617 0.549269 8.92096 1.23201 8.92096H15.9853L9.79958 3.17873C9.29651 2.71355 9.28624 1.93825 9.77904 1.46307Z" fill="black"/>
</svg>
