<svg width="17" height="21" viewBox="0 0 17 21" fill="none" xmlns="http://www.w3.org/2000/svg">
<g opacity="0.4">
<path fill-rule="evenodd" clip-rule="evenodd" d="M2.09175 8.2286H14.1475H2.09175Z" fill="#A0C834"/>
<path d="M2.09175 8.2286H14.1475" stroke="#0601B4" stroke-linecap="round" stroke-linejoin="round"/>
</g>
<path opacity="0.4" fill-rule="evenodd" clip-rule="evenodd" d="M4.60782 11.6461C4.60782 11.3675 4.83362 11.1417 5.11216 11.1417H5.11843C5.39697 11.1417 5.62277 11.3675 5.62277 11.6461C5.62277 11.9246 5.39697 12.1504 5.11843 12.1504H5.11216C4.83362 12.1504 4.60782 11.9246 4.60782 11.6461ZM8.11984 11.1417C7.8413 11.1417 7.6155 11.3675 7.6155 11.6461C7.6155 11.9246 7.8413 12.1504 8.11984 12.1504H8.12611C8.40465 12.1504 8.63046 11.9246 8.63046 11.6461C8.63046 11.3675 8.40465 11.1417 8.12611 11.1417H8.11984ZM11.1213 11.1417C10.8427 11.1417 10.6169 11.3675 10.6169 11.6461C10.6169 11.9246 10.8427 12.1504 11.1213 12.1504H11.1275C11.4061 12.1504 11.6319 11.9246 11.6319 11.6461C11.6319 11.3675 11.4061 11.1417 11.1275 11.1417H11.1213ZM11.1213 14.5423C10.8427 14.5423 10.6169 14.7681 10.6169 15.0466C10.6169 15.3251 10.8427 15.5509 11.1213 15.5509H11.1275C11.4061 15.5509 11.6319 15.3251 11.6319 15.0466C11.6319 14.7681 11.4061 14.5423 11.1275 14.5423H11.1213ZM7.6155 15.0466C7.6155 14.7681 7.8413 14.5423 8.11984 14.5423H8.12611C8.40465 14.5423 8.63046 14.7681 8.63046 15.0466C8.63046 15.3251 8.40465 15.5509 8.12611 15.5509H8.11984C7.8413 15.5509 7.6155 15.3251 7.6155 15.0466ZM5.11216 14.5423C4.83362 14.5423 4.60782 14.7681 4.60782 15.0466C4.60782 15.3251 4.83362 15.5509 5.11216 15.5509H5.11843C5.39697 15.5509 5.62277 15.3251 5.62277 15.0466C5.62277 14.7681 5.39697 14.5423 5.11843 14.5423H5.11216Z" fill="#A0C834"/>
<path fill-rule="evenodd" clip-rule="evenodd" d="M10.8519 1.75003V4.62947V1.75003Z" fill="#A0C834"/>
<path d="M10.8519 1.75003V4.62946" stroke="#0601B4" stroke-linecap="round" stroke-linejoin="round"/>
<path fill-rule="evenodd" clip-rule="evenodd" d="M5.38778 1.75003V4.62947V1.75003Z" fill="#A0C834"/>
<path d="M5.38778 1.75003V4.62946" stroke="#0601B4" stroke-linecap="round" stroke-linejoin="round"/>
<path fill-rule="evenodd" clip-rule="evenodd" d="M10.9833 3.13188H5.25619C3.26987 3.13188 2.0292 4.56332 2.0292 7.19453V15.113C2.0292 17.7855 3.26987 19.2501 5.25619 19.2501H10.9771C12.9696 19.2501 14.204 17.8104 14.204 15.1792V7.19453C14.2103 4.56332 12.9759 3.13188 10.9833 3.13188Z" fill="#A0C834" stroke="#0601B4" stroke-linecap="round" stroke-linejoin="round"/>
</svg>
