<svg width="20" height="20" viewBox="0 0 20 20" fill="none" xmlns="http://www.w3.org/2000/svg">
<path d="M19.8054 8.04147H18.9999V7.99997H9.99996V12H15.6514C14.8269 14.3284 12.6115 15.9999 9.99996 15.9999C6.68648 15.9999 3.99999 13.3135 3.99999 9.99996C3.99999 6.68648 6.68648 3.99999 9.99996 3.99999C11.5295 3.99999 12.921 4.57698 13.9805 5.51948L16.8089 2.69099C15.0229 1.0265 12.634 0 9.99996 0C4.47748 0 0 4.47748 0 9.99996C0 15.5224 4.47748 19.9999 9.99996 19.9999C15.5224 19.9999 19.9999 15.5224 19.9999 9.99996C19.9999 9.32947 19.9309 8.67497 19.8054 8.04147Z" fill="#FFC107"/>
<path d="M10 19.9999C12.583 19.9999 14.93 19.0114 16.7045 17.4039L13.6095 14.7849C12.5718 15.5741 11.3038 16.0009 10 15.9999C7.39905 15.9999 5.19055 14.3414 4.35856 12.0269L1.09757 14.5394C2.75256 17.7779 6.11355 19.9999 10 19.9999Z" fill="#4CAF50"/>
<path d="M19.8055 8.04153H19V8.00003H10V12H15.6515C15.2571 13.1082 14.5467 14.0766 13.608 14.7855L13.6095 14.7845L16.7045 17.4035C16.4855 17.6025 20 15 20 10C20 9.32952 19.931 8.67502 19.8055 8.04153Z" fill="#1976D2"/>
<path d="M1.15297 5.34548L4.43846 7.75497C5.32745 5.55398 7.48045 3.99999 9.99994 3.99999C11.5294 3.99999 12.9209 4.57698 13.9804 5.51948L16.8089 2.69099C15.0229 1.0265 12.6339 0 9.99994 0C6.15895 0 2.82796 2.16849 1.15297 5.34548Z" fill="#FF3D00"/>
</svg>
