<svg width="16" height="15" viewBox="0 0 16 15" fill="none" xmlns="http://www.w3.org/2000/svg">
<path d="M3.41283 0.298565C3.34486 0.2107 3.26235 0.139179 3.17009 0.0881482C3.07782 0.0371175 2.97765 0.00759155 2.87536 0.00128173C2.77308 -0.0050281 2.67072 0.0120037 2.57422 0.0513899C2.47771 0.0907761 2.38899 0.151733 2.31318 0.230729C2.23737 0.309724 2.176 0.405187 2.1326 0.511583C2.08921 0.617979 2.06466 0.733194 2.06038 0.850548C2.05611 0.967903 2.07219 1.08506 2.10769 1.19524C2.14319 1.30542 2.19741 1.40642 2.26721 1.49239L3.2993 2.7979C1.07708 4.4947 0.112715 6.92968 0.0662709 7.04433C0.0225703 7.15794 0 7.28074 0 7.40492C0 7.52909 0.0225703 7.65189 0.0662709 7.7655C0.0901381 7.82616 0.655209 9.26407 1.90404 10.6953C3.57345 12.6074 5.67828 13.6177 8.00049 13.6177C9.12911 13.6249 10.2476 13.3734 11.2903 12.8781L12.5862 14.5127C12.725 14.6837 12.917 14.785 13.1205 14.7948C13.324 14.8045 13.5226 14.7219 13.6734 14.5648C13.8241 14.4077 13.9148 14.1889 13.9257 13.9556C13.9367 13.7224 13.867 13.4936 13.7318 13.3189L3.41283 0.298565ZM8.00049 11.8425C6.09176 11.8425 4.42235 11.0489 3.03934 9.48449C2.49534 8.86683 2.02724 8.16709 1.64795 7.40454C1.9879 6.71592 2.86002 5.19294 4.3572 4.12856L10.1685 11.4594C9.4677 11.716 8.73617 11.8453 8.00049 11.8425ZM15.9347 7.7655C15.9115 7.82542 15.3542 9.24484 14.1285 10.662C14.0584 10.7514 13.9731 10.8234 13.8779 10.8738C13.7827 10.9242 13.6795 10.9519 13.5747 10.9552C13.4699 10.9585 13.3656 10.9374 13.2681 10.8931C13.1707 10.8487 13.0821 10.7822 13.0077 10.6974C12.9333 10.6127 12.8748 10.5114 12.8356 10.3999C12.7963 10.2884 12.7773 10.169 12.7795 10.0488C12.7818 9.92855 12.8054 9.81012 12.8487 9.70067C12.8921 9.59121 12.9545 9.493 13.0319 9.412C13.5468 8.81178 13.9909 8.1369 14.353 7.40454C13.974 6.64183 13.5058 5.94205 12.9616 5.3246C11.578 3.76021 9.90922 2.96654 8.00049 2.96654C7.78439 2.96654 7.5683 2.9769 7.35543 2.99761C7.25285 3.01021 7.14911 2.99917 7.0503 2.96514C6.95149 2.93111 6.85961 2.87477 6.78007 2.79944C6.70052 2.72411 6.63491 2.63131 6.58708 2.52648C6.53926 2.42166 6.5102 2.30693 6.5016 2.18905C6.493 2.07116 6.50504 1.95249 6.53701 1.84001C6.56898 1.72754 6.62023 1.62352 6.68776 1.53408C6.75529 1.44465 6.83773 1.37159 6.93023 1.31921C7.02274 1.26683 7.12344 1.23618 7.22642 1.22907C7.47993 1.20392 7.74247 1.19134 8.00049 1.19134C10.3227 1.19134 12.4275 2.20247 14.0956 4.11451C15.3438 5.54576 15.9089 6.98441 15.9328 7.04433C15.9768 7.15778 15.9997 7.28051 16 7.40468C16.0003 7.52885 15.9781 7.65174 15.9347 7.7655Z" fill="#A4A4A4"/>
</svg>
