<svg width="20" height="20" viewBox="0 0 20 20" fill="none" xmlns="http://www.w3.org/2000/svg">
<g clip-path="url(#clip0_113_596)">
<path fill-rule="evenodd" clip-rule="evenodd" d="M4.16667 8.02277C3.24619 8.02277 2.5 8.74116 2.5 9.62733C2.5 10.5135 3.24619 11.2319 4.16667 11.2319C5.08714 11.2319 5.83333 10.5135 5.83333 9.62733C5.83333 8.74116 5.08714 8.02277 4.16667 8.02277ZM8.33333 9.62733C8.33333 8.74116 9.07952 8.02277 10 8.02277C10.9205 8.02277 11.6667 8.74116 11.6667 9.62733C11.6667 10.5135 10.9205 11.2319 10 11.2319C9.07952 11.2319 8.33333 10.5135 8.33333 9.62733ZM14.1667 9.62733C14.1667 8.74116 14.9129 8.02277 15.8333 8.02277C16.7538 8.02277 17.5 8.74116 17.5 9.62733C17.5 10.5135 16.7538 11.2319 15.8333 11.2319C14.9129 11.2319 14.1667 10.5135 14.1667 9.62733Z" fill="#303030"/>
</g>
<defs>
<clipPath id="clip0_113_596">
<rect width="20" height="19.2547" fill="white"/>
</clipPath>
</defs>
</svg>
